<?xml version="1.0" encoding="UTF-8"?>
<svg version="1.1" xmlns="http://www.w3.org/2000/svg" width="982" height="578">
<path d="M0 0 C324.06 0 648.12 0 982 0 C982 190.74 982 381.48 982 578 C657.94 578 333.88 578 0 578 C0 387.26 0 196.52 0 0 Z " fill="#FEFEFE" transform="translate(0,0)"/>
<path d="M0 0 C1.34864438 0.45275918 2.69761566 0.90454551 4.046875 1.35546875 C24.0656663 8.26410849 42.86488997 20.16011534 56 37 C56 37.66 56 38.32 56 39 C57.85625 38.566875 57.85625 38.566875 59.75 38.125 C95.00365486 30.3713344 130.13482349 36.29050392 161 55 C168.62381403 59.97377232 175.39685724 65.75405971 182 72 C182.88558594 72.80953125 183.77117188 73.6190625 184.68359375 74.453125 C204.46929225 93.20042514 215.29254861 117.7939556 221 144 C221.17797119 144.75192627 221.35594238 145.50385254 221.53930664 146.27856445 C222.47304538 151.79440216 222.22589035 157.44184454 222.24023438 163.0246582 C222.24980786 165.26748683 222.28079885 167.5093444 222.3125 169.75195312 C222.39746322 181.33489958 221.71883154 193.24685376 217 204 C218.010625 203.938125 219.02125 203.87625 220.0625 203.8125 C245.79381434 203.94792797 269.86266905 217.88027508 288 235 C288.67804687 235.61359375 289.35609375 236.2271875 290.0546875 236.859375 C305.25648374 251.14540038 314.75272786 270.77594249 319 291 C319.17442627 291.72993164 319.34885254 292.45986328 319.52856445 293.21191406 C321.07164009 300.04230307 321.34853391 306.63699621 321.3125 313.625 C321.30404053 315.34577759 321.30404053 315.34577759 321.29541016 317.10131836 C320.93544526 342.39330763 311.97395302 367.97860517 295 387 C294.33742188 387.804375 293.67484375 388.60875 292.9921875 389.4375 C274.54779224 411.21685972 247.15486514 423.47244095 219 426 C212.42070073 426.34895909 205.82807437 426.27507817 199.24182129 426.26069641 C197.26551212 426.26372173 195.28920412 426.26761311 193.31289816 426.27228898 C187.91422675 426.28252912 182.51562205 426.28039732 177.11694527 426.27610838 C171.28167132 426.27363382 165.44641313 426.2826645 159.61114502 426.29014587 C148.19023373 426.30287575 136.76934597 426.30468861 125.34842879 426.30234561 C116.05928414 426.30055997 106.77014661 426.30231738 97.48100281 426.30657005 C96.1437052 426.30717247 94.80640759 426.30777367 93.46910998 426.30837366 C91.4535875 426.30928097 89.43806501 426.31018964 87.42254253 426.31110601 C68.69414231 426.31952982 49.96574468 426.32387532 31.23734283 426.31969929 C30.53204894 426.31954291 29.82675504 426.31938654 29.10008861 426.31922542 C25.52587169 426.31841971 21.95165479 426.31757394 18.37743789 426.31671212 C17.66766595 426.31654103 16.95789401 426.31636994 16.22661383 426.31619367 C14.79128276 426.31584701 13.35595168 426.31549848 11.92062061 426.31514808 C-10.39668523 426.30979483 -32.71395153 426.31771238 -55.03125 426.33618164 C-80.14204492 426.35693871 -105.25281535 426.36761708 -130.36361933 426.36360615 C-133.04590511 426.36321085 -135.72819089 426.3628493 -138.41047668 426.36250877 C-139.73002412 426.36234093 -141.04957155 426.3621731 -142.40910527 426.36200017 C-151.67534935 426.36156359 -160.94157117 426.36843186 -170.20780945 426.37832069 C-181.51777682 426.39026885 -192.82768603 426.39160116 -204.13765424 426.37953053 C-209.90037308 426.37366522 -215.66298573 426.3724769 -221.42569733 426.38453293 C-226.71609982 426.39547148 -232.00630848 426.39219475 -237.29670221 426.37827124 C-239.19572039 426.37564601 -241.09475417 426.37792116 -242.99375695 426.38600711 C-276.29910465 426.51781195 -308.94868819 419.4306454 -336 399 C-336.85851562 398.36191406 -337.71703125 397.72382813 -338.6015625 397.06640625 C-368.28479253 373.90648193 -389.32240974 340.52291186 -394.29003906 302.79736328 C-398.76770321 262.79529195 -388.56406021 225.80404935 -363.61523438 194.24853516 C-358.25013121 187.56070773 -352.72045278 181.36584096 -346 176 C-345.28972656 175.3915625 -344.57945312 174.783125 -343.84765625 174.15625 C-319.22841901 153.5105003 -290.55008758 144.52399139 -259 141 C-258.8040625 140.175 -258.608125 139.35 -258.40625 138.5 C-254.53286531 123.54072119 -247.84055301 110.91683991 -238 99 C-237.06414062 97.81857422 -237.06414062 97.81857422 -236.109375 96.61328125 C-222.19869505 79.8678619 -200.53108508 68.01562376 -179 65 C-174.46004059 64.78455289 -169.91960524 64.81487937 -165.375 64.8125 C-163.56322266 64.79413086 -163.56322266 64.79413086 -161.71484375 64.77539062 C-153.94199579 64.76284028 -146.61794773 65.45131562 -139 67 C-138.59974609 65.70449219 -138.59974609 65.70449219 -138.19140625 64.3828125 C-134.45490286 53.77359304 -128.01707233 44.67676248 -121 36 C-120.35160156 35.19691406 -119.70320313 34.39382812 -119.03515625 33.56640625 C-104.95420463 16.95145924 -84.83334773 5.33773306 -64.125 -0.875 C-63.44783936 -1.07834961 -62.77067871 -1.28169922 -62.07299805 -1.49121094 C-43.42742026 -6.73733961 -18.25285492 -6.60949792 0 0 Z " fill="#FEFEFE" transform="translate(519,83)"/>
<path d="M0 0 C1.34864438 0.45275918 2.69761566 0.90454551 4.046875 1.35546875 C24.0656663 8.26410849 42.86488997 20.16011534 56 37 C56 37.66 56 38.32 56 39 C57.85625 38.566875 57.85625 38.566875 59.75 38.125 C95.00365486 30.3713344 130.13482349 36.29050392 161 55 C168.62381403 59.97377232 175.39685724 65.75405971 182 72 C182.88558594 72.80953125 183.77117188 73.6190625 184.68359375 74.453125 C204.46929225 93.20042514 215.29254861 117.7939556 221 144 C221.17797119 144.75192627 221.35594238 145.50385254 221.53930664 146.27856445 C222.47304538 151.79440216 222.22589035 157.44184454 222.24023438 163.0246582 C222.24980786 165.26748683 222.28079885 167.5093444 222.3125 169.75195312 C222.39746322 181.33489958 221.71883154 193.24685376 217 204 C218.010625 203.938125 219.02125 203.87625 220.0625 203.8125 C245.79381434 203.94792797 269.86266905 217.88027508 288 235 C288.67804687 235.61359375 289.35609375 236.2271875 290.0546875 236.859375 C305.25648374 251.14540038 314.75272786 270.77594249 319 291 C319.17442627 291.72993164 319.34885254 292.45986328 319.52856445 293.21191406 C321.07164009 300.04230307 321.34853391 306.63699621 321.3125 313.625 C321.30404053 315.34577759 321.30404053 315.34577759 321.29541016 317.10131836 C320.93544526 342.39330763 311.97395302 367.97860517 295 387 C294.33742188 387.804375 293.67484375 388.60875 292.9921875 389.4375 C274.54779224 411.21685972 247.15486514 423.47244095 219 426 C212.42070073 426.34895909 205.82807437 426.27507817 199.24182129 426.26069641 C197.26551212 426.26372173 195.28920412 426.26761311 193.31289816 426.27228898 C187.91422675 426.28252912 182.51562205 426.28039732 177.11694527 426.27610838 C171.28167132 426.27363382 165.44641313 426.2826645 159.61114502 426.29014587 C148.19023373 426.30287575 136.76934597 426.30468861 125.34842879 426.30234561 C116.05928414 426.30055997 106.77014661 426.30231738 97.48100281 426.30657005 C96.1437052 426.30717247 94.80640759 426.30777367 93.46910998 426.30837366 C91.4535875 426.30928097 89.43806501 426.31018964 87.42254253 426.31110601 C68.69414231 426.31952982 49.96574468 426.32387532 31.23734283 426.31969929 C30.53204894 426.31954291 29.82675504 426.31938654 29.10008861 426.31922542 C25.52587169 426.31841971 21.95165479 426.31757394 18.37743789 426.31671212 C17.66766595 426.31654103 16.95789401 426.31636994 16.22661383 426.31619367 C14.79128276 426.31584701 13.35595168 426.31549848 11.92062061 426.31514808 C-10.39668523 426.30979483 -32.71395153 426.31771238 -55.03125 426.33618164 C-80.14204492 426.35693871 -105.25281535 426.36761708 -130.36361933 426.36360615 C-133.04590511 426.36321085 -135.72819089 426.3628493 -138.41047668 426.36250877 C-139.73002412 426.36234093 -141.04957155 426.3621731 -142.40910527 426.36200017 C-151.67534935 426.36156359 -160.94157117 426.36843186 -170.20780945 426.37832069 C-181.51777682 426.39026885 -192.82768603 426.39160116 -204.13765424 426.37953053 C-209.90037308 426.37366522 -215.66298573 426.3724769 -221.42569733 426.38453293 C-226.71609982 426.39547148 -232.00630848 426.39219475 -237.29670221 426.37827124 C-239.19572039 426.37564601 -241.09475417 426.37792116 -242.99375695 426.38600711 C-276.29910465 426.51781195 -308.94868819 419.4306454 -336 399 C-336.85851562 398.36191406 -337.71703125 397.72382813 -338.6015625 397.06640625 C-368.28479253 373.90648193 -389.32240974 340.52291186 -394.29003906 302.79736328 C-398.76770321 262.79529195 -388.56406021 225.80404935 -363.61523438 194.24853516 C-358.25013121 187.56070773 -352.72045278 181.36584096 -346 176 C-345.28972656 175.3915625 -344.57945312 174.783125 -343.84765625 174.15625 C-319.22841901 153.5105003 -290.55008758 144.52399139 -259 141 C-258.8040625 140.175 -258.608125 139.35 -258.40625 138.5 C-254.53286531 123.54072119 -247.84055301 110.91683991 -238 99 C-237.06414062 97.81857422 -237.06414062 97.81857422 -236.109375 96.61328125 C-222.19869505 79.8678619 -200.53108508 68.01562376 -179 65 C-174.46004059 64.78455289 -169.91960524 64.81487937 -165.375 64.8125 C-163.56322266 64.79413086 -163.56322266 64.79413086 -161.71484375 64.77539062 C-153.94199579 64.76284028 -146.61794773 65.45131562 -139 67 C-138.59974609 65.70449219 -138.59974609 65.70449219 -138.19140625 64.3828125 C-134.45490286 53.77359304 -128.01707233 44.67676248 -121 36 C-120.35160156 35.19691406 -119.70320313 34.39382812 -119.03515625 33.56640625 C-104.95420463 16.95145924 -84.83334773 5.33773306 -64.125 -0.875 C-63.44783936 -1.07834961 -62.77067871 -1.28169922 -62.07299805 -1.49121094 C-43.42742026 -6.73733961 -18.25285492 -6.60949792 0 0 Z M-107.45703125 47.74609375 C-117.20966624 59.85583802 -123.22962195 73.31439933 -128 88 C-137.31097217 86.02608392 -137.31097217 86.02608392 -141.375 84.5 C-154.0347511 80.20005006 -168.10691661 79.13409902 -181 83 C-182.20269531 83.31839844 -183.40539062 83.63679688 -184.64453125 83.96484375 C-205.60752442 89.74494103 -222.07193266 103.22652094 -233.625 121.5 C-240.13008584 133.09277912 -243.95295493 145.68624476 -244 159 C-244.59200195 158.97905273 -245.18400391 158.95810547 -245.79394531 158.93652344 C-281.11484773 157.86124356 -312.84667195 168.56321058 -338.87890625 192.97265625 C-361.16843523 214.36099134 -375.9596357 243.8522339 -377.37109375 274.98046875 C-378.10297194 312.13965026 -366.61955472 344.32959343 -341.359375 371.63671875 C-316.36360053 396.67387696 -283.21544029 408.30189271 -248.28916454 408.43672562 C-246.16347932 408.43555115 -244.03779423 408.43409037 -241.91210938 408.43237305 C-239.61707958 408.44141012 -237.32205455 408.45173306 -235.02703571 408.4632225 C-228.78025003 408.4907664 -222.53355523 408.50005057 -216.2867167 408.50606036 C-210.26446777 408.51470264 -204.24228006 408.53719592 -198.22006906 408.55920608 C-185.24722444 408.60604419 -172.27438339 408.6360759 -159.30147607 408.65854562 C-148.01595874 408.67811203 -136.73047023 408.70313592 -125.44497681 408.73352051 C-123.93343041 408.73757007 -122.42188402 408.7416191 -120.91033763 408.74566758 C-118.63699872 408.75176427 -116.36365984 408.75786585 -114.09032099 408.76398201 C-85.60260956 408.8404491 -57.1148875 408.89780065 -28.62711322 408.94459558 C-7.5417074 408.97925938 13.54365052 409.02299862 34.629015 409.07725732 C58.40695491 409.1384339 82.18488388 409.18893408 105.9628849 409.21979427 C108.35806911 409.22291096 110.75325331 409.22603168 113.1484375 409.22915649 C114.91073938 409.2314365 114.91073938 409.2314365 116.70864332 409.23376256 C124.94298666 409.24504899 133.1772973 409.2632918 141.41162109 409.28427124 C151.37548242 409.30944154 161.33928844 409.3237867 171.30318278 409.32403928 C176.33039195 409.32440053 181.35747415 409.32934986 186.38465309 409.3475666 C190.95958321 409.36399706 195.53430072 409.36628425 200.10925007 409.35757315 C201.74962296 409.35683925 203.39000815 409.36108052 205.03035069 409.37108648 C232.16580681 409.52716001 257.2995031 400.9603826 277 382 C293.34634949 365.8031598 305.1672495 342.26371408 305.27856445 318.95898438 C305.26913818 318.04439453 305.25971191 317.12980469 305.25 316.1875 C305.23876099 314.74020508 305.23876099 314.74020508 305.22729492 313.26367188 C304.8785468 290.05536101 296.62779621 269.15178343 281 252 C280.37609375 251.29488281 279.7521875 250.58976563 279.109375 249.86328125 C264.48768388 234.22790146 242.49078313 223.71408943 221.125 222.84179688 C216.99926732 222.78132197 212.87559702 222.82416144 208.75 222.875 C207.31120423 222.88506151 205.87240155 222.89418169 204.43359375 222.90234375 C200.95558247 222.9240794 197.47783755 222.95842967 194 223 C194.44730469 222.05382812 194.89460937 221.10765625 195.35546875 220.1328125 C199.75531318 210.59595138 203.01137818 201.08885102 205.52734375 190.89453125 C205.9075603 189.37052277 206.32318927 187.85537134 206.75 186.34375 C213.32507236 160.40874235 204.6932485 130.32411039 191.54931641 107.84375 C186.3316474 99.27466075 180.13826986 92.01872945 173 85 C172.17757812 84.17886719 171.35515625 83.35773438 170.5078125 82.51171875 C160.43771739 72.95338257 148.71813841 66.40152596 136 61 C134.88367188 60.4946875 133.76734375 59.989375 132.6171875 59.46875 C128.79714044 57.91762938 125.06039351 56.83881232 121.0625 55.875 C120.39798828 55.70613281 119.73347656 55.53726563 119.04882812 55.36328125 C99.09407195 50.44717255 79.0747473 52.65671464 59.35839844 57.44873047 C56.58977312 58.09588947 53.81287675 58.588013 51 59 C50.39414062 58.17757812 49.78828125 57.35515625 49.1640625 56.5078125 C32.26995719 33.86419021 9.39660724 17.79827418 -18.9140625 13.390625 C-52.74720804 9.70325709 -84.86541164 21.92196895 -107.45703125 47.74609375 Z " fill="#050505" transform="translate(519,83)"/>
<path d="M0 0 C54.63636364 0 54.63636364 0 64 8 C69.30770437 13.30770437 72.10325004 18.93065755 72.3125 26.4375 C71.88687039 36.36318247 69.28553622 44.14708774 61.8046875 51.015625 C49.69811623 60.2804609 36.53681745 59.29466522 22 59 C22 68.24 22 77.48 22 87 C14.74 87 7.48 87 0 87 C0 58.29 0 29.58 0 0 Z " fill="#030303" transform="translate(626,311)"/>
<path d="M0 0 C54.63636364 0 54.63636364 0 64 8 C69.30770437 13.30770437 72.10325004 18.93065755 72.3125 26.4375 C71.88687039 36.36318247 69.28553622 44.14708774 61.8046875 51.015625 C49.69811623 60.2804609 36.53681745 59.29466522 22 59 C22 68.24 22 77.48 22 87 C14.74 87 7.48 87 0 87 C0 58.29 0 29.58 0 0 Z " fill="#030303" transform="translate(389,311)"/>
<path d="M0 0 C0 6.93 0 13.86 0 21 C-4.58932616 19.16426954 -8.34143133 17.03660542 -12.5 14.4375 C-19.89337638 10.18630858 -28.17870372 9.46904491 -36.48046875 11.65234375 C-42.83110034 14.51442723 -47.27791281 19.58579862 -49.875 26 C-52.45485141 35.03720405 -52.31014977 45.31043856 -48.26171875 53.84765625 C-45.31242175 58.87880995 -41.96006606 63.52947651 -36.2421875 65.5625 C-24.25869284 67.90074286 -15.85844378 65.31172742 -6.0625 58.75 C-4.96615234 57.96882813 -4.96615234 57.96882813 -3.84765625 57.171875 C-2 56 -2 56 0 56 C0 62.93 0 69.86 0 77 C-17.66012969 83.64440523 -33.49407705 86.90392882 -51.80078125 79.93359375 C-61.05457715 75.67881354 -66.89299856 69.27095178 -71 60 C-76.20068226 45.65478477 -76.53755322 31.53697042 -70.8984375 17.19921875 C-65.8295323 6.42370738 -58.95242161 0.25968551 -47.921875 -4.26171875 C-31.60489688 -9.87806991 -15.42123292 -6.8538813 0 0 Z " fill="#020202" transform="translate(372,316)"/>
<path d="M0 0 C16.83 0 33.66 0 51 0 C51 5.28 51 10.56 51 16 C46.38 16 41.76 16 37 16 C37 34.15 37 52.3 37 71 C41.62 71 46.24 71 51 71 C51 76.28 51 81.56 51 87 C34.17 87 17.34 87 0 87 C0 81.72 0 76.44 0 71 C4.95 71 9.9 71 15 71 C15 52.85 15 34.7 15 16 C10.05 16 5.1 16 0 16 C0 10.72 0 5.44 0 0 Z " fill="#010101" transform="translate(556,311)"/>
<path d="M0 0 C25.08 0 50.16 0 76 0 C76 5.61 76 11.22 76 17 C67.09 17 58.18 17 49 17 C49 40.1 49 63.2 49 87 C41.74 87 34.48 87 27 87 C27 63.9 27 40.8 27 17 C18.09 17 9.18 17 0 17 C0 11.39 0 5.78 0 0 Z " fill="#000000" transform="translate(212,311)"/>
<path d="M0 0 C1.58206057 0.00667536 3.16410534 0.0186375 4.74609375 0.03515625 C5.55240234 0.03966797 6.35871094 0.04417969 7.18945312 0.04882812 C9.18753131 0.06065107 11.18557158 0.07858711 13.18359375 0.09765625 C11.32717845 5.90731487 9.25710941 11.54626338 6.83984375 17.14453125 C6.51825287 17.89768616 6.19666199 18.65084106 5.86532593 19.42681885 C4.80788364 21.90178549 3.74568493 24.37468151 2.68359375 26.84765625 C1.15344767 30.42514065 -0.37427618 34.00365865 -1.90234375 37.58203125 C-2.29936493 38.5107605 -2.69638611 39.43948975 -3.10543823 40.3963623 C-6.06143552 47.315078 -8.9953963 54.24288526 -11.91796875 61.17578125 C-12.33878723 62.17397888 -12.75960571 63.17217651 -13.19317627 64.20062256 C-14.84216769 68.11330972 -16.49053781 72.02625699 -18.13745117 75.93981934 C-22.94586587 87.364448 -27.82029745 98.7537063 -32.81640625 110.09765625 C-38.42640625 110.09765625 -44.03640625 110.09765625 -49.81640625 110.09765625 C-47.6343693 102.01864488 -44.55271977 94.48855489 -41.20806885 86.84234619 C-39.52994417 83.00443974 -37.87123152 79.15814573 -36.2109375 75.3125 C-35.85835876 74.4968457 -35.50578003 73.68119141 -35.14251709 72.84082031 C-30.44585535 61.95431262 -25.89393802 51.00688841 -21.33297729 40.0630188 C-17.20214099 30.15140473 -13.05048305 20.24911985 -8.83984375 10.37109375 C-8.45228912 9.45752106 -8.0647345 8.54394836 -7.66543579 7.60269165 C-7.30710663 6.7649118 -6.94877747 5.92713196 -6.57958984 5.06396484 C-6.26267181 4.32068939 -5.94575378 3.57741394 -5.61923218 2.81161499 C-4.11481819 -0.40016905 -4.01858455 0.1028297 0 0 Z " fill="#020202" transform="translate(523.81640625,306.90234375)"/>
<path d="M0 0 C2.84625 -0.0825 5.6925 -0.165 8.625 -0.25 C9.51010254 -0.28641602 10.39520508 -0.32283203 11.30712891 -0.36035156 C16.70234537 -0.4356393 19.76262502 0.36069296 24 4 C26.76055304 6.90645964 27.43128699 8.88624618 27.4375 12.875 C27.27581067 17.64835017 26.32149654 20.41628004 23 24 C17.94400022 27.21330106 13.89876407 27.37683121 8.125 27.1875 C5.44375 27.125625 2.7625 27.06375 0 27 C0 18.09 0 9.18 0 0 Z " fill="#F8F8F8" transform="translate(648,327)"/>
<path d="M0 0 C2.84625 -0.0825 5.6925 -0.165 8.625 -0.25 C9.51010254 -0.28641602 10.39520508 -0.32283203 11.30712891 -0.36035156 C16.70234537 -0.4356393 19.76262502 0.36069296 24 4 C26.76055304 6.90645964 27.43128699 8.88624618 27.4375 12.875 C27.27581067 17.64835017 26.32149654 20.41628004 23 24 C17.94400022 27.21330106 13.89876407 27.37683121 8.125 27.1875 C5.44375 27.125625 2.7625 27.06375 0 27 C0 18.09 0 9.18 0 0 Z " fill="#F8F8F8" transform="translate(411,327)"/>
<path d="M0 0 C0 3 0 3 -1.3125 4.38671875 C-2.875 5.59114583 -4.4375 6.79557292 -6 8 C-4.55746343 4.63408134 -2.66735273 2.48952921 0 0 Z M-7 8 C-7 11.62453269 -7.92469613 13.07920195 -10 16 C-10.99 16.33 -11.98 16.66 -13 17 C-11.47291037 13.56404834 -9.40072955 10.88087546 -7 8 Z " fill="#262626" transform="translate(289,173)"/>
</svg>
